<?xml version="1.0" standalone="no"?>
<!DOCTYPE svg PUBLIC "-//W3C//DTD SVG 20010904//EN"
 "http://www.w3.org/TR/2001/REC-SVG-20010904/DTD/svg10.dtd">
<svg version="1.0" xmlns="http://www.w3.org/2000/svg"
 width="801.000000pt" height="56.000000pt" viewBox="0 0 301.000000 226.000000"
 preserveAspectRatio="xMidYMid meet">

<g transform="translate(0.000000,226.000000) scale(0.100000,-0.100000)"
fill="#000000" stroke="none">
<path d="M900 1488 l0 -233 -165 165 -165 165 0 -583 0 -583 83 3 82 3 2 365
c2 201 3 369 3 375 0 5 116 -107 259 -249 l258 -258 93 92 93 92 -61 61 -61
61 -33 -32 -32 -33 -94 94 -93 93 3 114 3 113 329 -327 328 -328 54 53 54 53
0 120 0 120 -53 -52 -52 -52 -58 55 c-31 30 -57 57 -57 59 0 3 66 72 148 152
l147 147 3 -447 2 -447 83 3 82 3 3 295 2 295 77 77 c42 42 80 75 85 72 4 -3
7 -170 7 -372 l0 -367 81 -3 80 -3 0 583 0 583 -165 -165 -165 -165 0 233 c0
127 -2 232 -5 232 -2 0 -136 -131 -296 -290 -287 -286 -292 -291 -312 -273
-11 10 -143 141 -294 291 -150 149 -275 272 -278 272 -3 0 -5 -105 -5 -232z"/>
<path d="M902 665 l3 -240 83 -3 82 -3 0 158 0 158 -85 85 -85 85 2 -240z"/>
</g>
</svg>
